<svg width="64" height="64" viewBox="0 0 64 64" xmlns="http://www.w3.org/2000/svg">
  <!-- 주점/술집 아이콘 -->
  <g>
    <!-- 맥주잔 -->
    <rect x="15" y="25" width="12" height="25" fill="#FFD700" stroke="#FF8C00" stroke-width="2"/>
    <ellipse cx="21" cy="25" rx="6" ry="3" fill="#FFF8DC"/>
    
    <!-- 맥주 거품 -->
    <ellipse cx="21" cy="22" rx="5" ry="4" fill="white" opacity="0.9"/>
    <circle cx="18" cy="19" r="1.5" fill="white" opacity="0.8"/>
    <circle cx="24" cy="20" r="1" fill="white" opacity="0.8"/>
    
    <!-- 맥주잔 손잡이 -->
    <path d="M 27 30 Q 32 30, 32 35 Q 32 40, 27 40" fill="none" stroke="#FF8C00" stroke-width="2"/>
    
    <!-- 소주병 -->
    <rect x="40" y="15" width="6" height="30" fill="#E6F3FF" stroke="#4169E1" stroke-width="2"/>
    <rect x="39" y="15" width="8" height="4" fill="#4169E1"/>
    
    <!-- 소주병 라벨 -->
    <rect x="41" y="25" width="4" height="8" fill="white"/>
    <line x1="42" y1="27" x2="44" y2="27" stroke="#4169E1" stroke-width="1"/>
    <line x1="42" y1="29" x2="44" y2="29" stroke="#4169E1" stroke-width="1"/>
    <line x1="42" y1="31" x2="44" y2="31" stroke="#4169E1" stroke-width="1"/>
    
    <!-- 안주 (땅콩) -->
    <circle cx="25" cy="52" r="2" fill="#DEB887"/>
    <circle cx="30" cy="54" r="2" fill="#DEB887"/>
    <circle cx="20" cy="55" r="2" fill="#DEB887"/>
    
    <!-- 기타 안주 -->
    <rect x="35" y="50" width="3" height="3" fill="#FF6347"/> <!-- 김치 -->
    <ellipse cx="42" cy="52" rx="2" ry="1" fill="#32CD32"/> <!-- 오이 -->
  </g>
</svg>