<svg width="64" height="64" viewBox="0 0 64 64" xmlns="http://www.w3.org/2000/svg">
  <!-- BBQ/고기구이 아이콘 -->
  <g>
    <!-- 그릴 -->
    <rect x="8" y="40" width="48" height="8" fill="#8B4513" stroke="#654321" stroke-width="2"/>
    
    <!-- 그릴 선 -->
    <line x1="12" y1="40" x2="12" y2="48" stroke="#654321" stroke-width="1"/>
    <line x1="20" y1="40" x2="20" y2="48" stroke="#654321" stroke-width="1"/>
    <line x1="28" y1="40" x2="28" y2="48" stroke="#654321" stroke-width="1"/>
    <line x1="36" y1="40" x2="36" y2="48" stroke="#654321" stroke-width="1"/>
    <line x1="44" y1="40" x2="44" y2="48" stroke="#654321" stroke-width="1"/>
    <line x1="52" y1="40" x2="52" y2="48" stroke="#654321" stroke-width="1"/>
    
    <!-- 고기 -->
    <ellipse cx="24" cy="25" rx="8" ry="6" fill="#D2691E" stroke="#8B4513" stroke-width="2"/>
    <ellipse cx="40" cy="28" rx="7" ry="5" fill="#CD853F" stroke="#8B4513" stroke-width="2"/>
    <ellipse cx="32" cy="35" rx="6" ry="4" fill="#DEB887" stroke="#8B4513" stroke-width="2"/>
    
    <!-- 연기 -->
    <path d="M 20 20 Q 18 15 20 10 Q 22 15 20 5" stroke="#C0C0C0" stroke-width="2" fill="none" opacity="0.7"/>
    <path d="M 32 25 Q 30 20 32 15 Q 34 20 32 10" stroke="#C0C0C0" stroke-width="2" fill="none" opacity="0.7"/>
    <path d="M 44 22 Q 42 17 44 12 Q 46 17 44 7" stroke="#C0C0C0" stroke-width="2" fill="none" opacity="0.7"/>
    
    <!-- 그릴 다리 -->
    <rect x="10" y="48" width="4" height="12" fill="#8B4513"/>
    <rect x="50" y="48" width="4" height="12" fill="#8B4513"/>
  </g>
</svg>