<svg width="64" height="64" viewBox="0 0 64 64" xmlns="http://www.w3.org/2000/svg">
  <!-- 뷔페/무한리필 아이콘 -->
  <g>
    <!-- 무한대 기호 (∞) -->
    <path d="M 15 32 C 15 20, 25 20, 25 32 C 25 44, 35 44, 35 32 C 35 20, 45 20, 45 32 C 45 44, 35 44, 35 32 C 35 20, 25 20, 25 32 C 25 44, 15 44, 15 32 Z" 
          fill="none" stroke="#FF6347" stroke-width="4"/>
    
    <!-- 접시들 -->
    <ellipse cx="20" cy="15" rx="8" ry="3" fill="#F5F5DC" stroke="#DDD" stroke-width="1"/>
    <ellipse cx="32" cy="12" rx="8" ry="3" fill="#F5F5DC" stroke="#DDD" stroke-width="1"/>
    <ellipse cx="44" cy="15" rx="8" ry="3" fill="#F5F5DC" stroke="#DDD" stroke-width="1"/>
    
    <!-- 음식들 -->
    <circle cx="20" cy="14" r="2" fill="#FF6347"/> <!-- 토마토 -->
    <circle cx="32" cy="11" r="2" fill="#32CD32"/> <!-- 야채 -->
    <circle cx="44" cy="14" r="2" fill="#FFD700"/> <!-- 치즈 -->
    
    <!-- 접시들 (아래) -->
    <ellipse cx="20" cy="50" rx="8" ry="3" fill="#F5F5DC" stroke="#DDD" stroke-width="1"/>
    <ellipse cx="32" cy="53" rx="8" ry="3" fill="#F5F5DC" stroke="#DDD" stroke-width="1"/>
    <ellipse cx="44" cy="50" rx="8" ry="3" fill="#F5F5DC" stroke="#DDD" stroke-width="1"/>
    
    <!-- 음식들 (아래) -->
    <rect x="18" y="48" width="4" height="2" fill="#8B4513"/> <!-- 고기 -->
    <circle cx="32" cy="52" r="2" fill="#FF69B4"/> <!-- 과일 -->
    <ellipse cx="44" cy="49" rx="3" ry="1.5" fill="#DEB887"/> <!-- 빵 -->
  </g>
</svg>