<svg width="64" height="64" viewBox="0 0 64 64" xmlns="http://www.w3.org/2000/svg">
  <!-- 전골/찌개 아이콘 -->
  <g>
    <!-- 냄비 -->
    <ellipse cx="32" cy="50" rx="20" ry="8" fill="#8B4513"/>
    <rect x="12" y="30" width="40" height="20" fill="#CD853F" stroke="#8B4513" stroke-width="2"/>
    <ellipse cx="32" cy="30" rx="20" ry="8" fill="#DEB887" stroke="#8B4513" stroke-width="2"/>
    
    <!-- 국물 -->
    <ellipse cx="32" cy="32" rx="16" ry="6" fill="#FF6347" opacity="0.8"/>
    
    <!-- 건더기 -->
    <circle cx="25" cy="35" r="3" fill="#32CD32"/> <!-- 야채 -->
    <circle cx="38" cy="33" r="2.5" fill="#FFD700"/> <!-- 두부 -->
    <ellipse cx="32" cy="38" rx="4" ry="2" fill="#8B4513"/> <!-- 고기 -->
    <circle cx="42" cy="37" r="2" fill="#FF69B4"/> <!-- 버섯 -->
    
    <!-- 손잡이 -->
    <ellipse cx="8" cy="40" rx="3" ry="8" fill="#8B4513" stroke="#654321" stroke-width="1"/>
    <ellipse cx="56" cy="40" rx="3" ry="8" fill="#8B4513" stroke="#654321" stroke-width="1"/>
    
    <!-- 뜨거운 김 -->
    <path d="M 20 25 Q 18 20 20 15 Q 22 20 20 10" stroke="#C0C0C0" stroke-width="2" fill="none" opacity="0.6"/>
    <path d="M 32 25 Q 30 20 32 15 Q 34 20 32 10" stroke="#C0C0C0" stroke-width="2" fill="none" opacity="0.6"/>
    <path d="M 44 25 Q 42 20 44 15 Q 46 20 44 10" stroke="#C0C0C0" stroke-width="2" fill="none" opacity="0.6"/>
  </g>
</svg>