<svg width="64" height="64" viewBox="0 0 64 64" xmlns="http://www.w3.org/2000/svg">
  <!-- 해산물/회 아이콘 -->
  <g>
    <!-- 큰 생선 -->
    <ellipse cx="32" cy="25" rx="18" ry="8" fill="#FF69B4" stroke="#FF1493" stroke-width="2"/>
    
    <!-- 생선 눈 -->
    <circle cx="42" cy="22" r="2" fill="white"/>
    <circle cx="42" cy="22" r="1" fill="black"/>
    
    <!-- 생선 지느러미 -->
    <path d="M 14 25 L 8 18 L 12 30 Z" fill="#FF1493"/>
    <path d="M 50 25 L 56 18 L 52 30 Z" fill="#FF1493"/>
    
    <!-- 생선회 슬라이스들 -->
    <rect x="15" y="40" width="8" height="3" fill="#FFB6C1" stroke="#FF69B4" stroke-width="1"/>
    <rect x="25" y="42" width="8" height="3" fill="#FFB6C1" stroke="#FF69B4" stroke-width="1"/>
    <rect x="35" y="40" width="8" height="3" fill="#FFB6C1" stroke="#FF69B4" stroke-width="1"/>
    
    <!-- 조개 -->
    <path d="M 8 45 Q 8 40, 15 40 Q 15 45, 8 45" fill="#DDA0DD" stroke="#9370DB" stroke-width="1"/>
    <path d="M 49 45 Q 49 40, 56 40 Q 56 45, 49 45" fill="#DDA0DD" stroke="#9370DB" stroke-width="1"/>
    
    <!-- 새우 -->
    <ellipse cx="32" cy="50" rx="10" ry="3" fill="#FF7F50" stroke="#FF6347" stroke-width="1"/>
    <circle cx="38" cy="49" r="1" fill="black"/> <!-- 새우 눈 -->
    
    <!-- 장식용 파슬리 -->
    <path d="M 12 50 L 10 48 L 14 48 Z" fill="#32CD32"/>
    <path d="M 52 50 L 50 48 L 54 48 Z" fill="#32CD32"/>
  </g>
</svg>