<svg preserveAspectRatio="none" width="100%" height="100%" overflow="visible" style="display: block;" viewBox="0 0 24 24" fill="none" xmlns="http://www.w3.org/2000/svg">
<g id="chat5_1st 4">
<path id="Vector" d="M16.3973 7.00492C16.4778 7.3837 16.527 7.77723 16.527 8.1806C16.527 11.5847 13.3657 14.3493 9.46662 14.3493C8.96135 14.3493 8.47844 14.2853 8 14.1968C8.62153 17.0499 11.4877 19.2045 14.9352 19.2045C15.5477 19.2045 16.138 19.1307 16.7058 18.9979L19.7509 21V17.5369C21.1325 16.4104 22 14.8117 22 13.0309C22 10.0597 19.5944 7.58538 16.3973 7V7.00492Z" stroke="var(--stroke-0, #8F99A9)" stroke-width="1.5" stroke-linejoin="round"/>
<path id="Vector_2" d="M16 8.67323C16 8.30323 15.9553 7.94694 15.8703 7.59065C15.2486 4.97786 12.4083 3 9 3C5.13546 3 2 5.54427 2 8.67323C2 10.3085 2.86326 11.7793 4.23195 12.8162V16L7.24665 14.1592C7.34505 14.1774 7.44792 14.1866 7.54633 14.2094C8.01597 14.2916 8.49904 14.351 9 14.351C12.8645 14.351 16 11.8159 16 8.67779V8.67323Z" stroke="var(--stroke-0, #8F99A9)" stroke-width="1.5" stroke-linejoin="round"/>
</g>
</svg>
