<svg preserveAspectRatio="none" width="100%" height="100%" overflow="visible" style="display: block;" viewBox="0 0 24 24" fill="none" xmlns="http://www.w3.org/2000/svg">
<g id="&#237;&#131;&#144;&#236;&#131;&#137;6_st 1">
<path id="Vector" d="M12 2.74988H12.209C15.6129 2.85058 18.2547 5.46014 18.2549 8.54969C18.2549 8.96459 18.1307 9.57377 17.875 10.3554C17.6238 11.1232 17.2638 12.0052 16.833 12.9481L16.8301 12.954C16.4141 13.8839 15.9376 14.8467 15.4297 15.8085C15.2067 16.2218 15.0452 16.5491 14.8408 16.913L14.8369 16.9208C13.9849 18.4812 13.1266 19.934 12.4863 21.0194C12.415 21.1385 12.2487 21.244 12.0098 21.244C11.771 21.244 11.6045 21.1384 11.5332 21.0194L11.5312 21.0155L11.0088 20.1425C10.4573 19.2072 9.82498 18.0954 9.18359 16.9208L9.18066 16.9169L8.58984 15.8085L8.58887 15.8065C8.5345 15.7065 8.48165 15.6012 8.42188 15.4804C8.36644 15.3683 8.30378 15.242 8.23633 15.1171H8.2373C7.54591 13.7739 6.91579 12.4395 6.46094 11.2675C5.99593 10.0692 5.75 9.12938 5.75 8.53992C5.75005 5.39096 8.49585 2.74988 12 2.74988Z" stroke="var(--stroke-0, #8F99A9)" stroke-width="1.5" stroke-miterlimit="10"/>
<path id="Vector_2" d="M12.0004 5.825C13.4151 5.8252 14.5248 6.92828 14.5248 8.22539C14.5246 9.52306 13.4192 10.6246 12.0004 10.6248C10.5814 10.6248 9.47522 9.52318 9.475 8.22539C9.475 6.92744 10.5812 5.825 12.0004 5.825Z" stroke="var(--stroke-0, #8F99A9)" stroke-width="1.5" stroke-miterlimit="10"/>
</g>
</svg>
