<svg preserveAspectRatio="none" width="100%" height="100%" overflow="visible" style="display: block;" viewBox="0 0 24 24" fill="none" xmlns="http://www.w3.org/2000/svg">
<g id="home7 1">
<path id="Vector" d="M21.9644 9.73778C21.9289 9.52889 21.8133 9.32444 21.6 9.16L12.8356 2.28C12.3644 1.90667 11.6222 1.90667 11.1467 2.28L2.38667 9.15555C2.15111 9.33778 2.04444 9.56444 2.01778 9.79111C2.00444 9.84 2 9.89333 2 9.94667V20.9867C2 21.5467 2.54667 22 3.22222 22H9.29333V17.8667C9.29333 16.3733 10.5067 15.16 12 15.16C13.4933 15.16 14.7067 16.3733 14.7067 17.8667V22H20.7778C21.4533 22 22 21.5467 22 20.9867V9.94667C22 9.87111 21.9867 9.80444 21.9644 9.73333V9.73778Z" fill="var(--fill-0, #151515)"/>
</g>
</svg>
