<svg preserveAspectRatio="none" width="100%" height="100%" overflow="visible" style="display: block;" viewBox="0 0 24 24" fill="none" xmlns="http://www.w3.org/2000/svg">
<g id="clock2_st 7">
<path id="Vector" d="M12 22C17.5228 22 22 17.5228 22 12C22 6.47715 17.5228 2 12 2C6.47715 2 2 6.47715 2 12C2 17.5228 6.47715 22 12 22Z" stroke="var(--stroke-0, #8F99A9)" stroke-width="1.5" stroke-miterlimit="10"/>
<path id="Vector_2" d="M16.2502 16.345L11.4902 11.67V7.285C11.4902 6.99 11.2502 6.755 10.9502 6.755C10.6502 6.755 10.4102 6.995 10.4102 7.285V11.74C10.4102 11.765 10.4252 11.79 10.4252 11.815C10.4002 11.975 10.4402 12.14 10.5702 12.27L15.4852 17.1C15.6952 17.31 16.0402 17.31 16.2502 17.1C16.4602 16.89 16.4602 16.555 16.2502 16.35V16.345Z" fill="var(--fill-0, #8F99A9)"/>
</g>
</svg>
