<svg preserveAspectRatio="none" width="100%" height="100%" overflow="visible" style="display: block;" viewBox="0 0 24 24" fill="none" xmlns="http://www.w3.org/2000/svg">
<g id="my1_st 4">
<path id="Vector" d="M12.25 10.17C14.5972 10.17 16.5 8.32097 16.5 6.04003C16.5 3.7591 14.5972 1.91003 12.25 1.91003C9.90279 1.91003 8 3.7591 8 6.04003C8 8.32097 9.90279 10.17 12.25 10.17Z" stroke="var(--stroke-0, #8F99A9)" stroke-width="1.5" stroke-miterlimit="10"/>
<path id="Vector_2" d="M18.7218 12.8725C17.2944 11.9383 15.3894 11.7748 13.6961 12.2839C13.1642 12.4427 12.5889 12.5315 11.9973 12.5315C11.4057 12.5315 10.8358 12.4474 10.3094 12.2886C8.50746 11.7514 6.51018 11.999 5.04478 13.0313C3.1886 14.3392 2 16.2963 2 18.4917V20.0611C2 20.5796 2.50475 21 3.12347 21H20.8765C21.4953 21 22 20.5749 22 20.0611V18.4917C22 16.2122 20.7191 14.1804 18.7327 12.8771H18.7218V12.8725Z" stroke="var(--stroke-0, #8F99A9)" stroke-width="1.5" stroke-miterlimit="10"/>
</g>
</svg>
