<svg width="64" height="64" viewBox="0 0 64 64" xmlns="http://www.w3.org/2000/svg">
  <!-- 뷔페/무한리필 아이콘 -->
  <g>
    <!-- 접시 -->
    <ellipse cx="32" cy="45" rx="25" ry="8" fill="#F5F5DC" stroke="#DDD" stroke-width="2"/>
    <ellipse cx="32" cy="42" rx="23" ry="6" fill="#FFF"/>
    
    <!-- 음식들 -->
    <circle cx="22" cy="40" r="4" fill="#FF6B35"/>
    <circle cx="32" cy="38" r="4" fill="#2ECC71"/>
    <circle cx="42" cy="40" r="4" fill="#E74C3C"/>
    
    <!-- 포크 -->
    <rect x="48" y="35" width="2" height="15" fill="#C0C0C0"/>
    <rect x="46" y="35" width="6" height="2" fill="#C0C0C0"/>
    
    <!-- 무한대 기호 -->
    <path d="M 15 20 C 10 15, 10 25, 15 20 C 20 15, 25 15, 30 20 C 35 25, 40 25, 45 20 C 50 15, 50 25, 45 20 C 40 25, 35 25, 30 20 C 25 15, 20 15, 15 20 Z" 
          fill="#FF9800" stroke="#F57C00" stroke-width="2"/>
  </g>
</svg>